<?xml version="1.0" standalone="no"?>
<!DOCTYPE svg PUBLIC "-//W3C//DTD SVG 20010904//EN"
 "http://www.w3.org/TR/2001/REC-SVG-20010904/DTD/svg10.dtd">
<svg version="1.0" xmlns="http://www.w3.org/2000/svg"
 width="700.000000pt" height="700.000000pt" viewBox="0 0 700.000000 700.000000"
 preserveAspectRatio="xMidYMid meet">
<metadata>
Created by potrace 1.11, written by Peter Selinger 2001-2013
</metadata>
<g transform="translate(0.000000,700.000000) scale(0.100000,-0.100000)"
fill="#000000" stroke="none">
<path d="M432 6985 c-203 -48 -378 -228 -421 -430 -14 -68 -14 -6027 0 -6105
14 -75 80 -205 131 -261 89 -95 198 -157 313 -178 82 -15 6006 -16 6091 0 74
13 206 77 260 127 81 74 135 156 172 261 15 42 17 288 20 3056 2 2096 -1 3031
-8 3080 -26 170 -145 328 -303 404 -45 22 -107 44 -137 50 -88 16 -6049 13
-6118 -4z m2527 -132 c-18 -32 -40 -71 -48 -86 -9 -16 -21 -36 -26 -45 -28
-46 -324 -559 -382 -662 -11 -19 -77 -134 -147 -255 -202 -349 -246 -425 -296
-510 -26 -44 -82 -141 -124 -215 -43 -74 -82 -142 -87 -150 -5 -8 -54 -94
-109 -190 -55 -96 -104 -182 -109 -190 -10 -15 -154 -265 -202 -349 -46 -81
-811 -1405 -830 -1436 -10 -16 -26 -46 -37 -65 -11 -19 -77 -134 -147 -255
-70 -121 -171 -296 -224 -388 l-96 -168 -3 2288 c-2 1665 0 2304 8 2348 34
177 169 321 347 370 38 10 298 13 1296 14 l1249 1 -33 -57z m1121 52 c0 -4
-184 -324 -523 -910 -60 -104 -120 -208 -132 -230 -13 -22 -46 -80 -75 -130
-29 -49 -61 -106 -72 -125 -11 -19 -87 -150 -168 -290 -178 -309 -256 -444
-282 -490 -28 -48 -197 -341 -275 -473 -35 -60 -63 -110 -63 -113 0 -2 -16
-28 -35 -58 -19 -30 -35 -58 -35 -61 0 -3 -11 -22 -24 -43 -18 -30 -137 -233
-236 -407 -9 -16 -60 -104 -112 -195 -301 -520 -470 -813 -475 -826 -3 -7 32
-78 78 -156 45 -79 89 -154 96 -168 20 -35 49 -86 132 -230 40 -69 83 -143 96
-165 12 -22 71 -123 130 -225 59 -102 117 -201 127 -220 11 -19 105 -181 208
-360 103 -179 197 -341 208 -360 11 -19 43 -75 72 -125 29 -49 64 -110 78
-135 14 -25 55 -97 92 -160 37 -63 73 -125 79 -138 l12 -22 -1238 0 c-1016 0
-1247 3 -1290 14 -174 46 -303 174 -348 347 -12 43 -14 171 -15 658 l0 604
289 501 c159 275 423 733 586 1016 163 283 321 556 350 605 29 50 64 110 78
135 13 25 89 155 167 290 78 135 151 261 162 280 11 19 114 197 228 396 115
198 217 376 228 395 63 110 814 1410 859 1487 l54 92 495 0 c272 0 494 -2 494
-5z m406 -11 c-4 -9 -31 -58 -60 -108 -29 -50 -64 -109 -76 -131 -12 -22 -124
-215 -248 -430 -124 -214 -249 -430 -277 -480 -29 -49 -96 -166 -150 -260 -54
-93 -130 -224 -168 -290 -38 -66 -79 -138 -92 -160 -12 -22 -79 -138 -149
-258 -69 -120 -126 -225 -126 -232 0 -8 140 -256 311 -552 172 -296 321 -554
331 -573 11 -19 29 -51 40 -70 11 -19 104 -179 205 -355 102 -176 186 -321
188 -323 2 -2 609 -4 1349 -4 l1347 0 -3 -136 -3 -137 -2418 0 c-2144 0 -2417
-2 -2412 -15 4 -8 128 -226 277 -485 288 -498 517 -895 547 -948 10 -18 125
-216 255 -441 130 -224 236 -410 236 -412 0 -2 -69 -4 -154 -4 -111 0 -156 3
-163 12 -6 7 -24 38 -40 68 -17 30 -229 399 -473 820 -243 421 -452 783 -465
805 -12 22 -104 181 -204 354 -99 172 -181 317 -181 321 0 5 -3 10 -7 12 -5 2
-15 16 -24 32 -16 29 -16 31 27 103 24 41 44 76 44 79 0 2 13 25 29 51 50 85
135 230 364 628 491 853 629 1093 662 1147 5 9 17 29 26 45 19 36 512 888 677
1173 69 118 134 231 144 250 11 19 135 234 276 478 l255 442 155 0 c138 0 154
-2 148 -16z m2063 1 c175 -46 300 -171 346 -346 12 -46 15 -339 15 -1926 l0
-1873 -1322 0 -1323 0 -70 122 c-38 66 -82 142 -97 167 -15 25 -31 53 -35 61
-4 8 -28 51 -54 95 -67 115 -754 1306 -767 1331 -12 22 -16 13 273 514 65 113
125 216 132 230 8 14 22 39 32 55 10 17 34 57 53 90 19 33 61 105 93 160 32
55 69 120 82 144 14 24 91 157 171 295 79 138 153 265 162 281 9 17 40 69 69
117 28 48 51 89 51 91 0 2 24 45 54 94 29 49 65 111 81 138 15 28 44 78 63
113 l36 62 951 0 c788 0 959 -3 1004 -15z m361 -5487 c0 -978 1 -949 -56
-1065 -34 -70 -124 -160 -196 -196 -118 -60 -30 -57 -1665 -57 l-1501 0 -25
42 c-14 24 -34 59 -45 78 -11 19 -52 91 -92 160 -39 69 -82 143 -95 165 -12
22 -113 198 -225 390 -358 617 -380 657 -380 666 0 5 -4 9 -10 9 -5 0 -10 5
-10 11 0 6 -22 48 -49 93 -27 44 -64 108 -81 141 -18 33 -39 67 -46 76 -8 8
-14 18 -14 21 0 5 -151 268 -192 336 l-20 32 2351 0 2351 0 0 -902z"/>
<path d="M2844 4047 c-123 -215 -319 -553 -358 -620 -75 -128 -138 -248 -148
-282 -26 -89 -14 -195 31 -283 42 -83 157 -169 247 -187 30 -6 1274 -9 1279
-3 1 2 -112 201 -252 443 -140 242 -267 463 -282 490 -56 100 -295 512 -332
573 -22 35 -39 67 -39 72 0 38 -35 -10 -146 -203z m341 -307 c109 -190 206
-357 216 -372 11 -15 19 -30 19 -32 0 -3 18 -35 40 -71 22 -36 40 -67 40 -69
0 -4 107 -190 130 -226 8 -13 31 -53 99 -173 11 -21 21 -40 21 -42 0 -3 -248
-5 -551 -5 -512 1 -554 2 -599 19 -76 29 -125 74 -160 145 -37 75 -42 156 -13
227 9 24 122 225 250 447 293 509 296 513 304 504 3 -4 95 -162 204 -352z"/>
</g>
</svg>
