<?xml version="1.0" encoding="UTF-8" standalone="no"?>
<!DOCTYPE svg PUBLIC "-//W3C//DTD SVG 1.1//EN" "http://www.w3.org/Graphics/SVG/1.1/DTD/svg11.dtd">
<svg width="100%" height="100%" viewBox="0 0 1000 1000" version="1.1" xmlns="http://www.w3.org/2000/svg" xmlns:xlink="http://www.w3.org/1999/xlink" xml:space="preserve" xmlns:serif="http://www.serif.com/" style="fill-rule:evenodd;clip-rule:evenodd;stroke-linejoin:round;stroke-miterlimit:2;">
    <path id="affinity_designer_icon" d="M237.5,636.526L447.356,1000L433.496,1000L223.644,636.526L591.14,0L604.996,0L237.5,636.526ZM1000,658.03L1000,670.032L315.705,670.032L506.209,1000L492.357,1000L294.92,658.03L1000,658.03ZM0,777.437L0,753.435L434.996,0L448.853,0L0,777.437ZM663.853,0L461.356,350.736L609.331,607.034L1000,607.034L1000,619.036L602.402,619.036L447.499,350.736L649.996,0L663.853,0ZM557.402,619.036L385.073,619.036L384.848,619.026L384.4,619.026L384.175,619.016L383.952,619.016L382.388,618.948L382.166,618.928L381.943,618.919L381.721,618.899L381.499,618.889L379.949,618.753L379.728,618.723L379.507,618.704L379.288,618.674L379.067,618.655L377.533,618.45L377.314,618.411L377.096,618.381L376.879,618.342L376.661,618.313L375.143,618.04L374.927,617.991L374.712,617.952L374.497,617.903L374.281,617.864L373.637,617.717L373.423,617.678L373.21,617.62L372.57,617.473L372.357,617.415L371.933,617.317L370.037,616.79L369.828,616.721L369.619,616.663L369.202,616.526L368.994,616.467L368.165,616.194L367.959,616.116L367.341,615.911L366.931,615.755L366.523,615.608L365.306,615.139L364.703,614.885L364.102,614.631L363.704,614.465L362.714,614.016L362.126,613.733L361.735,613.547L360.381,612.864L359.997,612.659L359.425,612.346L358.857,612.024L358.481,611.819L357.92,611.487L357.363,611.155L356.809,610.803L356.26,610.462L355.897,610.227L355.355,609.866L354.817,609.495L354.284,609.124L353.406,608.489L352.884,608.098L352.368,607.698L352.026,607.424L351.517,607.024L350.847,606.467L350.349,606.048L350.021,605.755L349.694,605.471L348.728,604.592L348.254,604.133L347.783,603.684L346.707,602.59L346.405,602.278L345.957,601.799L345.661,601.467L345.221,600.979L344.36,599.983L343.938,599.475L343.522,598.958L343.112,598.44L342.31,597.385L341.919,596.848L341.279,595.94L340.657,595.012L340.293,594.456L339.934,593.889L339.467,593.118L339.124,592.542L338.568,591.565L338.139,590.784L337.828,590.188L337.523,589.592L337.13,588.792L336.843,588.186L336.296,586.975L335.863,585.95L335.533,585.13L335.217,584.309L334.842,583.274L334.627,582.649L334.286,581.604L333.968,580.55L333.729,579.71L333.504,578.86L333.293,578.01L333.096,577.161L332.87,576.087L332.705,575.237L332.591,574.593L332.417,573.509L332.294,572.649L332.185,571.79L332.069,570.706L331.974,569.622L331.902,568.538L331.851,567.454L331.827,566.585L331.816,565.716L331.823,564.622L331.843,563.753L331.879,562.884L331.928,562.014L332.028,560.716L332.135,559.632L332.265,558.557L332.385,557.688L332.518,556.829L332.705,555.755L332.87,554.895L333.096,553.831L333.344,552.766L333.615,551.702L333.787,551.067L334.03,550.227L334.286,549.388L334.556,548.548L334.842,547.718L335.139,546.888L335.533,545.862L335.863,545.042L336.296,544.016L336.658,543.206L336.938,542.6L337.226,541.995L337.725,540.999L338.035,540.413L338.352,539.817L338.677,539.231L338.788,539.026L339.011,538.645L424.999,389.71L557.402,619.036ZM349.41,544.632L349.059,545.247L348.645,546.009L348.17,546.936L347.719,547.874L347.504,548.343L347.024,549.446L346.639,550.403L346.338,551.204L346.052,552.014L345.838,552.659L345.633,553.313L345.392,554.134L345.085,555.276L344.847,556.272L344.634,557.268L344.446,558.264L344.335,558.929L344.165,560.1L344.064,560.94L343.996,561.614L343.926,562.454L343.865,563.47L343.828,564.485L343.816,565.325L343.824,566.341L343.857,567.346L343.903,568.196L343.996,569.378L344.102,570.384L344.21,571.223L344.389,572.395L344.569,573.391L344.81,574.553L345.003,575.384L345.257,576.37L345.487,577.19L345.786,578.167L346.052,578.977L346.279,579.622L346.578,580.423L346.892,581.223L347.225,582.014L347.719,583.118L347.867,583.421L348.325,584.358L348.483,584.671L348.808,585.286L349.23,586.048L349.579,586.653L350.119,587.542L350.585,588.274L350.966,588.85L351.357,589.417L351.959,590.247L352.58,591.067L353.005,591.604L353.436,592.132L354.099,592.903L354.896,593.792L355.245,594.163L355.715,594.641L356.314,595.237L356.437,595.364L357.173,596.057L357.548,596.389L357.925,596.731L358.18,596.946L358.694,597.385L359.347,597.923L359.744,598.235L360.009,598.43L360.413,598.743L360.818,599.036L361.366,599.436L361.92,599.817L362.338,600.1L362.62,600.276L363.043,600.549L363.758,600.999L364.337,601.341L364.775,601.585L365.214,601.839L365.806,602.151L366.107,602.317L366.706,602.62L367.16,602.844L367.922,603.196L368.381,603.411L368.845,603.616L369.312,603.811L369.781,603.997L370.253,604.192L371.524,604.661L372.002,604.817L372.485,604.983L372.809,605.081L373.621,605.335L374.275,605.52L374.768,605.647L375.262,605.774L376.092,605.979L376.76,606.126L377.262,606.223L379.121,606.555L379.633,606.624L380.488,606.731L380.829,606.78L381.518,606.848L382.035,606.887L382.556,606.926L383.596,606.995L384.121,607.014L384.471,607.024L384.82,607.024L384.997,607.034L536.618,607.034L424.999,413.704L349.41,544.632Z" style="fill:white;"/>
    <path d="M1000,80C1000,35.847 964.153,0 920,0L80,0C35.847,0 0,35.847 0,80L0,920.001C0,964.154 35.847,1000 80,1000L920,1000C964.153,1000 1000,964.154 1000,920.001L1000,80Z" style="fill:white;fill-opacity:0;"/>
    <path d="M1000,80C1000,35.847 964.153,0 920,0L80,0C35.847,0 0,35.847 0,80L0,920.001C0,964.154 35.847,1000 80,1000L920,1000C964.153,1000 1000,964.154 1000,920.001L1000,80ZM987.05,80L987.05,920.001C987.05,957.006 957.006,987.05 920,987.05L80,987.05C42.994,987.05 12.951,957.006 12.951,920.001L12.951,80C12.951,42.994 42.994,12.95 80,12.95L920,12.95C957.006,12.95 987.05,42.994 987.05,80Z" style="fill:white;"/>
</svg>
